<svg xmlns="http://www.w3.org/2000/svg" viewBox="0 0 512 512">
  <rect width="512" height="512" rx="110" fill="#0C1B2E"/>
  <g transform="translate(-2618.2 -1151.2) scale(2.2834)">
    <path d="M1184.27 639.87 L1275.16 639.87 L1245.07 602.48 C1242.84 599.65 1241.6 596.61 1241.34 593.36 C1241.09 590.12 1241.65 587.11 1243.02 584.32 C1244.38 581.53 1246.41 579.2 1249.1 577.33 C1251.78 575.45 1254.95 574.52 1258.59 574.52 L1333.15 574.52 L1333.15 592.6 L1260.27 592.6 L1290.21 629.99 C1292.44 632.83 1293.68 635.87 1293.93 639.11 C1294.18 642.35 1293.65 645.37 1292.34 648.15 C1291.02 650.94 1289.02 653.27 1286.33 655.14 C1283.65 657.02 1280.48 657.96 1276.83 657.96 L1184.27 657.96 L1184.27 639.87 Z" fill="#0DB0A4"/>
  </g>
</svg>
