<svg xmlns="http://www.w3.org/2000/svg" viewBox="1182.3 572.3 512.9 92.4" role="img" aria-label="SIMO">
  <path d="M1346.25 576.96H1364.49V660.24H1346.25Z Z" fill="#F4F8FB"/>
  <path d="M1381.81 660.25 L1381.81 586.69 C1381.81 583.96 1382.57 581.58 1384.09 579.55 C1385.61 577.52 1387.46 576.11 1389.64 575.29 C1391.82 574.48 1394.15 574.31 1396.63 574.76 C1399.11 575.22 1401.26 576.51 1403.09 578.64 L1457.65 641.56 L1512.21 578.64 C1514.04 576.51 1516.19 575.22 1518.67 574.76 C1521.16 574.31 1523.49 574.48 1525.66 575.29 C1527.84 576.11 1529.69 577.52 1531.21 579.55 C1532.73 581.58 1533.49 583.96 1533.49 586.69 L1533.49 660.25 L1515.41 660.25 L1515.41 602.35 L1466.77 658.43 C1465.55 659.85 1464.13 660.91 1462.52 661.62 C1460.89 662.33 1459.25 662.69 1457.58 662.69 C1455.9 662.69 1454.28 662.33 1452.71 661.62 C1451.14 660.91 1449.75 659.85 1448.53 658.43 L1399.9 602.35 L1399.9 660.25 L1381.81 660.25 Z" fill="#F4F8FB"/>
  <path d="M1184.27 639.87 L1275.16 639.87 L1245.07 602.48 C1242.84 599.65 1241.6 596.61 1241.34 593.36 C1241.09 590.12 1241.65 587.11 1243.02 584.32 C1244.38 581.53 1246.41 579.2 1249.1 577.33 C1251.78 575.45 1254.95 574.52 1258.59 574.52 L1333.15 574.52 L1333.15 592.6 L1260.27 592.6 L1290.21 629.99 C1292.44 632.83 1293.68 635.87 1293.93 639.11 C1294.18 642.35 1293.65 645.37 1292.34 648.15 C1291.02 650.94 1289.02 653.27 1286.33 655.14 C1283.65 657.02 1280.48 657.96 1276.83 657.96 L1184.27 657.96 L1184.27 639.87 Z" fill="#0DB0A4"/>
  <path d="M1566.28 614.01 C1566.58 612.45 1567.04 610.94 1567.67 609.48 C1568.88 606.65 1570.56 604.16 1572.68 602.03 C1574.81 599.91 1577.29 598.23 1580.13 597.02 C1582.97 595.8 1586.01 595.19 1589.25 595.19 L1613.88 595.19 L1613.88 576.96 L1589.25 576.96 C1583.47 576.96 1578.08 578.05 1573.06 580.22 C1568.05 582.4 1563.64 585.37 1559.84 589.12 C1556.04 592.87 1553.05 597.27 1550.87 602.34 C1549.28 606.04 1548.28 609.93 1547.85 614.01 L1566.28 614.01 Z" fill="#0DB0A4"/>
  <path d="M1689.94 602.34 C1687.76 597.27 1684.77 592.86 1680.97 589.12 C1677.17 585.37 1672.74 582.4 1667.67 580.22 C1662.61 578.05 1657.19 576.96 1651.41 576.96 L1628.37 576.96 L1628.37 595.2 L1651.41 595.2 C1654.65 595.2 1657.69 595.8 1660.53 597.02 C1663.37 598.23 1665.85 599.91 1667.98 602.03 C1670.11 604.16 1671.78 606.65 1672.99 609.48 C1674.21 612.32 1674.82 615.36 1674.82 618.6 C1674.82 621.84 1674.21 624.89 1672.99 627.72 C1671.78 630.56 1670.11 633.04 1667.98 635.17 C1665.85 637.29 1663.37 638.97 1660.53 640.18 C1657.69 641.4 1654.65 642.01 1651.41 642.01 L1589.25 642.01 C1586.01 642.01 1582.97 641.4 1580.13 640.18 C1577.29 638.97 1574.81 637.29 1572.68 635.17 C1570.75 633.24 1569.2 631.01 1568.02 628.5 L1548.77 628.5 C1549.3 630.66 1549.99 632.76 1550.87 634.79 C1553.05 639.8 1556.04 644.21 1559.84 648.01 C1563.64 651.81 1568.05 654.8 1573.06 656.98 C1578.08 659.16 1583.47 660.24 1589.25 660.24 L1651.41 660.24 C1657.19 660.24 1662.61 659.16 1667.67 656.98 C1672.74 654.8 1677.17 651.81 1680.97 648.01 C1684.77 644.21 1687.76 639.8 1689.94 634.79 C1692.12 629.77 1693.21 624.38 1693.21 618.6 C1693.21 612.83 1692.12 607.41 1689.94 602.34 Z" fill="#F4F8FB"/>
</svg>
